<?xml version="1.0" encoding="UTF-8" standalone="no"?>
<!-- Generator: Adobe Illustrator 19.1.0, SVG Export Plug-In . SVG Version: 6.00 Build 0)  -->

<svg
   xmlns:dc="http://purl.org/dc/elements/1.1/"
   xmlns:cc="http://creativecommons.org/ns#"
   xmlns:rdf="http://www.w3.org/1999/02/22-rdf-syntax-ns#"
   xmlns:svg="http://www.w3.org/2000/svg"
   xmlns="http://www.w3.org/2000/svg"
   xmlns:sodipodi="http://sodipodi.sourceforge.net/DTD/sodipodi-0.dtd"
   xmlns:inkscape="http://www.inkscape.org/namespaces/inkscape"
   version="1.1"
   id="Layer_1"
   x="0px"
   y="0px"
   viewBox="0 0 100 100"
   style="enable-background:new 0 0 100 100;"
   xml:space="preserve"
   inkscape:version="0.91 r13725"
   sodipodi:docname="ManagementTools_CloudFormation.svg"><metadata
     id="metadata830"><rdf:RDF><cc:Work
         rdf:about=""><dc:format>image/svg+xml</dc:format><dc:type
           rdf:resource="http://purl.org/dc/dcmitype/StillImage" /><dc:title></dc:title></cc:Work></rdf:RDF></metadata><defs
     id="defs828" /><sodipodi:namedview
     pagecolor="#ffffff"
     bordercolor="#666666"
     borderopacity="1"
     objecttolerance="10"
     gridtolerance="10"
     guidetolerance="10"
     inkscape:pageopacity="0"
     inkscape:pageshadow="2"
     inkscape:window-width="1280"
     inkscape:window-height="957"
     id="namedview826"
     showgrid="false"
     inkscape:zoom="2.36"
     inkscape:cx="50"
     inkscape:cy="50"
     inkscape:window-x="-9"
     inkscape:window-y="-9"
     inkscape:window-maximized="1"
     inkscape:current-layer="Layer_1" /><style
     type="text/css"
     id="style3">
	.st0{fill:#B7CA9D;}
	.st1{fill:#3C4929;}
	.st2{fill:#759C3E;}
	.st3{fill:#4B612C;}
	.st4{display:none;}
	.st5{display:inline;}
	.st6{font-family:'MyriadPro-Regular';}
	.st7{font-size:12px;}
</style><g
     id="Layer_1_1_"><g
       id="g6"><polygon
         class="st0"
         points="24.2,63.8 50.1,71.6 50.3,67.1 32.5,62.6   "
         id="polygon8" /><polygon
         class="st1"
         points="50.3,33.2 32.5,37.4 24.2,36.2 50.1,28.4   "
         id="polygon10" /><polygon
         class="st0"
         points="75.8,63.8 49.9,71.6 49.8,67.1 67.5,62.6   "
         id="polygon12" /><polygon
         class="st1"
         points="49.8,33.2 67.5,37.4 75.8,36.2 49.9,28.4   "
         id="polygon14" /><polygon
         class="st2"
         points="32.5,62.6 24.2,63.8 24.2,36.2 32.5,37.4   "
         id="polygon16" /><path
         class="st3"
         d="M50,14L20.4,28.9l0,42.2L50,86V14z M41.3,68.9l-17.1-5.1V36.2l17.1-5.1V68.9z"
         id="path18" /><polygon
         class="st3"
         points="67.5,62.6 75.8,63.8 75.8,36.2 67.5,37.4   "
         id="polygon20" /><path
         class="st2"
         d="M50,86l29.6-14.9l0-42.2L50,14V86z M58.7,31.1l17.1,5.1v27.6l-17.1,5.1V31.1z"
         id="path22" /></g></g><g
     id="nyt_x5F_exporter_x5F_info"
     class="st4"><text
       transform="matrix(1 0 0 1 -595 0)"
       class="st5 st6 st7"
       id="text25">&lt;</text>
<text
       transform="matrix(1 0 0 1 -587.8481 0)"
       class="st5 st6 st7"
       id="text27">n</text>
<text
       transform="matrix(1 0 0 1 -581.3442 0)"
       class="st5 st6 st7"
       id="text29">y</text>
<text
       transform="matrix(1 0 0 1 -575.6924 0)"
       class="st5 st6 st7"
       id="text31">t</text>
<text
       transform="matrix(1 0 0 1 -571.7202 0)"
       class="st5 st6 st7"
       id="text33">_</text>
<text
       transform="matrix(1 0 0 1 -565.7202 0)"
       class="st5 st6 st7"
       id="text35">p</text>
<text
       transform="matrix(1 0 0 1 -558.8926 0)"
       class="st5 st6 st7"
       id="text37">r</text>
<text
       transform="matrix(1 0 0 1 -555.0889 0)"
       class="st5 st6 st7"
       id="text39">e</text>
<text
       transform="matrix(1 0 0 1 -549.0771 0)"
       class="st5 st6 st7"
       id="text41">f</text>
<text
       transform="matrix(1 0 0 1 -545.6812 0)"
       class="st5 st6 st7"
       id="text43">s</text>
<text
       transform="matrix(1 0 0 1 -540.9287 0)"
       class="st5 st6 st7"
       id="text45">&gt;</text>
<text
       transform="matrix(1 0 0 1 -595 14.3999)"
       class="st5 st6 st7"
       id="text47" />
<text
       transform="matrix(1 0 0 1 -592.4561 14.3999)"
       class="st5 st6 st7"
       id="text49" />
<text
       transform="matrix(1 0 0 1 -589.9121 14.3999)"
       class="st5 st6 st7"
       id="text51">&lt;</text>
<text
       transform="matrix(1 0 0 1 -582.7603 14.3999)"
       class="st5 st6 st7"
       id="text53">n</text>
<text
       transform="matrix(1 0 0 1 -576.2563 14.3999)"
       class="st5 st6 st7"
       id="text55">y</text>
<text
       transform="matrix(1 0 0 1 -570.6045 14.3999)"
       class="st5 st6 st7"
       id="text57">t</text>
<text
       transform="matrix(1 0 0 1 -566.6323 14.3999)"
       class="st5 st6 st7"
       id="text59">_</text>
<text
       transform="matrix(1 0 0 1 -560.6323 14.3999)"
       class="st5 st6 st7"
       id="text61">p</text>
<text
       transform="matrix(1 0 0 1 -553.8047 14.3999)"
       class="st5 st6 st7"
       id="text63">r</text>
<text
       transform="matrix(1 0 0 1 -550.001 14.3999)"
       class="st5 st6 st7"
       id="text65">e</text>
<text
       transform="matrix(1 0 0 1 -543.9883 14.3999)"
       class="st5 st6 st7"
       id="text67">f</text>
<text
       transform="matrix(1 0 0 1 -537.7119 14.3999)"
       class="st5 st6 st7"
       id="text69">i</text>
<text
       transform="matrix(1 0 0 1 -532.1562 14.3999)"
       class="st5 st6 st7"
       id="text71">x</text>
<text
       transform="matrix(1 0 0 1 -525.0039 14.3999)"
       class="st5 st6 st7"
       id="text73">&gt;</text>
<text
       transform="matrix(1 0 0 1 -517.8516 14.3999)"
       class="st5 st6 st7"
       id="text75">&lt;</text>
<text
       transform="matrix(1 0 0 1 23823 -8141)"
       class="st5 st6 st7"
       id="text77">/</text>
<text
       transform="matrix(1 0 0 1 -513.7354 14.3999)"
       class="st5 st6 st7"
       id="text79">n</text>
<text
       transform="matrix(1 0 0 1 -507.2314 14.3999)"
       class="st5 st6 st7"
       id="text81">y</text>
<text
       transform="matrix(1 0 0 1 -501.5791 14.3999)"
       class="st5 st6 st7"
       id="text83">t</text>
<text
       transform="matrix(1 0 0 1 -497.6074 14.3999)"
       class="st5 st6 st7"
       id="text85">_</text>
<text
       transform="matrix(1 0 0 1 -491.6074 14.3999)"
       class="st5 st6 st7"
       id="text87">p</text>
<text
       transform="matrix(1 0 0 1 -484.7793 14.3999)"
       class="st5 st6 st7"
       id="text89">r</text>
<text
       transform="matrix(1 0 0 1 -480.9756 14.3999)"
       class="st5 st6 st7"
       id="text91">e</text>
<text
       transform="matrix(1 0 0 1 -474.9639 14.3999)"
       class="st5 st6 st7"
       id="text93">f</text>
<text
       transform="matrix(1 0 0 1 -468.6875 14.3999)"
       class="st5 st6 st7"
       id="text95">i</text>
<text
       transform="matrix(1 0 0 1 -463.1318 14.3999)"
       class="st5 st6 st7"
       id="text97">x</text>
<text
       transform="matrix(1 0 0 1 130528 -8141)"
       class="st5 st6 st7"
       id="text99">&gt;</text>
<text
       transform="matrix(1 0 0 1 -595 28.7998)"
       class="st5 st6 st7"
       id="text101" />
<text
       transform="matrix(1 0 0 1 -592.4561 28.7998)"
       class="st5 st6 st7"
       id="text103" />
<text
       transform="matrix(1 0 0 1 -589.9121 28.7998)"
       class="st5 st6 st7"
       id="text105">&lt;</text>
<text
       transform="matrix(1 0 0 1 -582.7603 28.7998)"
       class="st5 st6 st7"
       id="text107">n</text>
<text
       transform="matrix(1 0 0 1 -576.2563 28.7998)"
       class="st5 st6 st7"
       id="text109">y</text>
<text
       transform="matrix(1 0 0 1 -570.6045 28.7998)"
       class="st5 st6 st7"
       id="text111">t</text>
<text
       transform="matrix(1 0 0 1 -566.6323 28.7998)"
       class="st5 st6 st7"
       id="text113">_</text>
<text
       transform="matrix(1 0 0 1 -560.6323 28.7998)"
       class="st5 st6 st7"
       id="text115">s</text>
<text
       transform="matrix(1 0 0 1 -555.8804 28.7998)"
       class="st5 st6 st7"
       id="text117">u</text>
<text
       transform="matrix(1 0 0 1 -549.2686 28.7998)"
       class="st5 st6 st7"
       id="text119">f</text>
<text
       transform="matrix(1 0 0 1 -539.4893 28.7998)"
       class="st5 st6 st7"
       id="text121">f</text>
<text
       transform="matrix(1 0 0 1 -533.9336 28.7998)"
       class="st5 st6 st7"
       id="text123">i</text>
<text
       transform="matrix(1 0 0 1 -526.7812 28.7998)"
       class="st5 st6 st7"
       id="text125">x</text>
<text
       transform="matrix(1 0 0 1 -519.6289 28.7998)"
       class="st5 st6 st7"
       id="text127">&gt;</text>
<text
       transform="matrix(1 0 0 1 0 -8141)"
       class="st5 st6 st7"
       id="text129">&lt;</text>
<text
       transform="matrix(1 0 0 1 0 -8141)"
       class="st5 st6 st7"
       id="text131">/</text>
<text
       transform="matrix(1 0 0 1 -515.5127 28.7998)"
       class="st5 st6 st7"
       id="text133">n</text>
<text
       transform="matrix(1 0 0 1 -509.0078 28.7998)"
       class="st5 st6 st7"
       id="text135">y</text>
<text
       transform="matrix(1 0 0 1 -503.3555 28.7998)"
       class="st5 st6 st7"
       id="text137">t</text>
<text
       transform="matrix(1 0 0 1 -499.3838 28.7998)"
       class="st5 st6 st7"
       id="text139">_</text>
<text
       transform="matrix(1 0 0 1 -493.3838 28.7998)"
       class="st5 st6 st7"
       id="text141">s</text>
<text
       transform="matrix(1 0 0 1 -488.6318 28.7998)"
       class="st5 st6 st7"
       id="text143">u</text>
<text
       transform="matrix(1 0 0 1 -482.0195 28.7998)"
       class="st5 st6 st7"
       id="text145">f</text>
<text
       transform="matrix(1 0 0 1 -472.2393 28.7998)"
       class="st5 st6 st7"
       id="text147">f</text>
<text
       transform="matrix(1 0 0 1 -466.6836 28.7998)"
       class="st5 st6 st7"
       id="text149">i</text>
<text
       transform="matrix(1 0 0 1 -526.7812 28.7998)"
       class="st5 st6 st7"
       id="text151">x</text>
<text
       transform="matrix(1 0 0 1 -519.6289 28.7998)"
       class="st5 st6 st7"
       id="text153">&gt;</text>
<text
       transform="matrix(1 0 0 1 -595 43.2002)"
       class="st5 st6 st7"
       id="text155" />
<text
       transform="matrix(1 0 0 1 -592.4561 43.2002)"
       class="st5 st6 st7"
       id="text157" />
<text
       transform="matrix(1 0 0 1 -589.9121 43.2002)"
       class="st5 st6 st7"
       id="text159">&lt;</text>
<text
       transform="matrix(1 0 0 1 -582.7603 43.2002)"
       class="st5 st6 st7"
       id="text161">n</text>
<text
       transform="matrix(1 0 0 1 -576.2563 43.2002)"
       class="st5 st6 st7"
       id="text163">y</text>
<text
       transform="matrix(1 0 0 1 -570.6045 43.2002)"
       class="st5 st6 st7"
       id="text165">t</text>
<text
       transform="matrix(1 0 0 1 -566.6323 43.2002)"
       class="st5 st6 st7"
       id="text167">_</text>
<text
       transform="matrix(1 0 0 1 -560.6323 43.2002)"
       class="st5 st6 st7"
       id="text169">b</text>
<text
       transform="matrix(1 0 0 1 -553.8047 43.2002)"
       class="st5 st6 st7"
       id="text171">a</text>
<text
       transform="matrix(1 0 0 1 -548.021 43.2002)"
       class="st5 st6 st7"
       id="text173">s</text>
<text
       transform="matrix(1 0 0 1 -543.2695 43.2002)"
       class="st5 st6 st7"
       id="text175">e</text>
<text
       transform="matrix(1 0 0 1 -537.2578 43.2002)"
       class="st5 st6 st7"
       id="text177">_</text>
<text
       transform="matrix(1 0 0 1 -531.2578 43.2002)"
       class="st5 st6 st7"
       id="text179">p</text>
<text
       transform="matrix(1 0 0 1 -524.4297 43.2002)"
       class="st5 st6 st7"
       id="text181">a</text>
<text
       transform="matrix(1 0 0 1 -518.6934 43.2002)"
       class="st5 st6 st7"
       id="text183">t</text>
<text
       transform="matrix(1 0 0 1 -514.7217 43.2002)"
       class="st5 st6 st7"
       id="text185">h</text>
<text
       transform="matrix(1 0 0 1 -508.0615 43.2002)"
       class="st5 st6 st7"
       id="text187">&gt;</text>
<text
       transform="matrix(1 0 0 1 -500.9092 43.2002)"
       class="st5 st6 st7"
       id="text189">~</text>
<text
       transform="matrix(1 0 0 1 -493.7568 43.2002)"
       class="st5 st6 st7"
       id="text191">/</text>
<text
       transform="matrix(1 0 0 1 -489.6406 43.2002)"
       class="st5 st6 st7"
       id="text193">D</text>
<text
       transform="matrix(1 0 0 1 -481.6006 43.2002)"
       class="st5 st6 st7"
       id="text195">e</text>
<text
       transform="matrix(1 0 0 1 -475.5889 43.2002)"
       class="st5 st6 st7"
       id="text197">s</text>
<text
       transform="matrix(1 0 0 1 -470.8369 43.2002)"
       class="st5 st6 st7"
       id="text199">k</text>
<text
       transform="matrix(1 0 0 1 -465.209 43.2002)"
       class="st5 st6 st7"
       id="text201">t</text>
<text
       transform="matrix(1 0 0 1 -461.3086 43.2002)"
       class="st5 st6 st7"
       id="text203">o</text>
<text
       transform="matrix(1 0 0 1 -454.7207 43.2002)"
       class="st5 st6 st7"
       id="text205">p</text>
<text
       transform="matrix(1 0 0 1 -447.8926 43.2002)"
       class="st5 st6 st7"
       id="text207">/</text>
<text
       transform="matrix(1 0 0 1 -443.7764 43.2002)"
       class="st5 st6 st7"
       id="text209">w</text>
<text
       transform="matrix(1 0 0 1 -434.9443 43.2002)"
       class="st5 st6 st7"
       id="text211">i</text>
<text
       transform="matrix(1 0 0 1 -432.1367 43.2002)"
       class="st5 st6 st7"
       id="text213">p</text>
<text
       transform="matrix(1 0 0 1 -425.3086 43.2002)"
       class="st5 st6 st7"
       id="text215">/</text>
<text
       transform="matrix(1 0 0 1 -421.1924 43.2002)"
       class="st5 st6 st7"
       id="text217">A</text>
<text
       transform="matrix(1 0 0 1 -413.8848 43.2002)"
       class="st5 st6 st7"
       id="text219">r</text>
<text
       transform="matrix(1 0 0 1 -410.0811 43.2002)"
       class="st5 st6 st7"
       id="text221">c</text>
<text
       transform="matrix(1 0 0 1 -404.7051 43.2002)"
       class="st5 st6 st7"
       id="text223">h</text>
<text
       transform="matrix(1 0 0 1 -398.0449 43.2002)"
       class="st5 st6 st7"
       id="text225">i</text>
<text
       transform="matrix(1 0 0 1 -395.2373 43.2002)"
       class="st5 st6 st7"
       id="text227">t</text>
<text
       transform="matrix(1 0 0 1 -391.3379 43.2002)"
       class="st5 st6 st7"
       id="text229">e</text>
<text
       transform="matrix(1 0 0 1 -385.3262 43.2002)"
       class="st5 st6 st7"
       id="text231">c</text>
<text
       transform="matrix(1 0 0 1 -379.7939 43.2002)"
       class="st5 st6 st7"
       id="text233">t</text>
<text
       transform="matrix(1 0 0 1 -375.8223 43.2002)"
       class="st5 st6 st7"
       id="text235">u</text>
<text
       transform="matrix(1 0 0 1 -369.21 43.2002)"
       class="st5 st6 st7"
       id="text237">r</text>
<text
       transform="matrix(1 0 0 1 -365.4062 43.2002)"
       class="st5 st6 st7"
       id="text239">e</text>
<text
       transform="matrix(1 0 0 1 -359.3945 43.2002)"
       class="st5 st6 st7"
       id="text241">%</text>
<text
       transform="matrix(1 0 0 1 -349.8906 43.2002)"
       class="st5 st6 st7"
       id="text243">2</text>
<text
       transform="matrix(1 0 0 1 -343.7344 43.2002)"
       class="st5 st6 st7"
       id="text245">0</text>
<text
       transform="matrix(1 0 0 1 -337.5781 43.2002)"
       class="st5 st6 st7"
       id="text247">I</text>
<text
       transform="matrix(1 0 0 1 -334.71 43.2002)"
       class="st5 st6 st7"
       id="text249">c</text>
<text
       transform="matrix(1 0 0 1 -329.4053 43.2002)"
       class="st5 st6 st7"
       id="text251">o</text>
<text
       transform="matrix(1 0 0 1 -322.8174 43.2002)"
       class="st5 st6 st7"
       id="text253">n</text>
<text
       transform="matrix(1 0 0 1 -316.1572 43.2002)"
       class="st5 st6 st7"
       id="text255">s</text>
<text
       transform="matrix(1 0 0 1 -311.4053 43.2002)"
       class="st5 st6 st7"
       id="text257">%</text>
<text
       transform="matrix(1 0 0 1 -301.9014 43.2002)"
       class="st5 st6 st7"
       id="text259">2</text>
<text
       transform="matrix(1 0 0 1 -295.7451 43.2002)"
       class="st5 st6 st7"
       id="text261">0</text>
<text
       transform="matrix(1 0 0 1 -289.5889 43.2002)"
       class="st5 st6 st7"
       id="text263">-</text>
<text
       transform="matrix(1 0 0 1 -285.9053 43.2002)"
       class="st5 st6 st7"
       id="text265">%</text>
<text
       transform="matrix(1 0 0 1 -276.4014 43.2002)"
       class="st5 st6 st7"
       id="text267">2</text>
<text
       transform="matrix(1 0 0 1 -270.2451 43.2002)"
       class="st5 st6 st7"
       id="text269">0</text>
<text
       transform="matrix(1 0 0 1 -264.0889 43.2002)"
       class="st5 st6 st7"
       id="text271">U</text>
<text
       transform="matrix(1 0 0 1 -256.3252 43.2002)"
       class="st5 st6 st7"
       id="text273">p</text>
<text
       transform="matrix(1 0 0 1 -249.4971 43.2002)"
       class="st5 st6 st7"
       id="text275">d</text>
<text
       transform="matrix(1 0 0 1 -242.7295 43.2002)"
       class="st5 st6 st7"
       id="text277">a</text>
<text
       transform="matrix(1 0 0 1 -236.9932 43.2002)"
       class="st5 st6 st7"
       id="text279">t</text>
<text
       transform="matrix(1 0 0 1 -233.0938 43.2002)"
       class="st5 st6 st7"
       id="text281">e</text>
<text
       transform="matrix(1 0 0 1 -227.082 43.2002)"
       class="st5 st6 st7"
       id="text283">%</text>
<text
       transform="matrix(1 0 0 1 -217.5781 43.2002)"
       class="st5 st6 st7"
       id="text285">2</text>
<text
       transform="matrix(1 0 0 1 -211.4219 43.2002)"
       class="st5 st6 st7"
       id="text287">0</text>
<text
       transform="matrix(1 0 0 1 -205.2656 43.2002)"
       class="st5 st6 st7"
       id="text289">a</text>
<text
       transform="matrix(1 0 0 1 -199.4814 43.2002)"
       class="st5 st6 st7"
       id="text291">l</text>
<text
       transform="matrix(1 0 0 1 -196.6494 43.2002)"
       class="st5 st6 st7"
       id="text293">l</text>
<text
       transform="matrix(1 0 0 1 -193.8174 43.2002)"
       class="st5 st6 st7"
       id="text295">%</text>
<text
       transform="matrix(1 0 0 1 -184.3135 43.2002)"
       class="st5 st6 st7"
       id="text297">2</text>
<text
       transform="matrix(1 0 0 1 -178.1572 43.2002)"
       class="st5 st6 st7"
       id="text299">0</text>
<text
       transform="matrix(1 0 0 1 -172.001 43.2002)"
       class="st5 st6 st7"
       id="text301">c</text>
<text
       transform="matrix(1 0 0 1 -166.625 43.2002)"
       class="st5 st6 st7"
       id="text303">u</text>
<text
       transform="matrix(1 0 0 1 -160.0127 43.2002)"
       class="st5 st6 st7"
       id="text305">s</text>
<text
       transform="matrix(1 0 0 1 -155.2607 43.2002)"
       class="st5 st6 st7"
       id="text307">t</text>
<text
       transform="matrix(1 0 0 1 -151.3613 43.2002)"
       class="st5 st6 st7"
       id="text309">o</text>
<text
       transform="matrix(1 0 0 1 -144.7734 43.2002)"
       class="st5 st6 st7"
       id="text311">m</text>
<text
       transform="matrix(1 0 0 1 -134.7656 43.2002)"
       class="st5 st6 st7"
       id="text313">e</text>
<text
       transform="matrix(1 0 0 1 -128.7539 43.2002)"
       class="st5 st6 st7"
       id="text315">r</text>
<text
       transform="matrix(1 0 0 1 -124.8896 43.2002)"
       class="st5 st6 st7"
       id="text317">-</text>
<text
       transform="matrix(1 0 0 1 -121.2061 43.2002)"
       class="st5 st6 st7"
       id="text319">f</text>
<text
       transform="matrix(1 0 0 1 -117.7021 43.2002)"
       class="st5 st6 st7"
       id="text321">a</text>
<text
       transform="matrix(1 0 0 1 -111.918 43.2002)"
       class="st5 st6 st7"
       id="text323">c</text>
<text
       transform="matrix(1 0 0 1 -106.542 43.2002)"
       class="st5 st6 st7"
       id="text325">i</text>
<text
       transform="matrix(1 0 0 1 -103.7344 43.2002)"
       class="st5 st6 st7"
       id="text327">n</text>
<text
       transform="matrix(1 0 0 1 -97.0742 43.2002)"
       class="st5 st6 st7"
       id="text329">g</text>
<text
       transform="matrix(1 0 0 1 -90.3662 43.2002)"
       class="st5 st6 st7"
       id="text331">%</text>
<text
       transform="matrix(1 0 0 1 -80.8623 43.2002)"
       class="st5 st6 st7"
       id="text333">2</text>
<text
       transform="matrix(1 0 0 1 -74.7061 43.2002)"
       class="st5 st6 st7"
       id="text335">0</text>
<text
       transform="matrix(1 0 0 1 -68.5498 43.2002)"
       class="st5 st6 st7"
       id="text337">f</text>
<text
       transform="matrix(1 0 0 1 -62.2734 43.2002)"
       class="st5 st6 st7"
       id="text339">i</text>
<text
       transform="matrix(1 0 0 1 -59.4414 43.2002)"
       class="st5 st6 st7"
       id="text341">l</text>
<text
       transform="matrix(1 0 0 1 -53.4297 43.2002)"
       class="st5 st6 st7"
       id="text343">e</text>
<text
       transform="matrix(1 0 0 1 -48.6777 43.2002)"
       class="st5 st6 st7"
       id="text345">s</text>
<text
       transform="matrix(1 0 0 1 -39.1738 43.2002)"
       class="st5 st6 st7"
       id="text347">%</text>
<text
       transform="matrix(1 0 0 1 -33.0176 43.2002)"
       class="st5 st6 st7"
       id="text349">2</text>
<text
       transform="matrix(1 0 0 1 -26.8613 43.2002)"
       class="st5 st6 st7"
       id="text351">0</text>
<text
       transform="matrix(1 0 0 1 -8736 -8141)"
       class="st5 st6 st7"
       id="text353">/</text>
<text
       transform="matrix(1 0 0 1 -22.7451 43.2002)"
       class="st5 st6 st7"
       id="text355">A</text>
<text
       transform="matrix(1 0 0 1 -16.0371 43.2002)"
       class="st5 st6 st7"
       id="text357">W</text>
<text
       transform="matrix(1 0 0 1 -5.8848 43.2002)"
       class="st5 st6 st7"
       id="text359">S</text>
<text
       transform="matrix(1 0 0 1 9.080000e-002 43.2002)"
       class="st5 st6 st7"
       id="text361">-</text>
<text
       transform="matrix(1 0 0 1 3.7744 43.2002)"
       class="st5 st6 st7"
       id="text363">S</text>
<text
       transform="matrix(1 0 0 1 9.6904 43.2002)"
       class="st5 st6 st7"
       id="text365">i</text>
<text
       transform="matrix(1 0 0 1 12.498 43.2002)"
       class="st5 st6 st7"
       id="text367">m</text>
<text
       transform="matrix(1 0 0 1 22.5059 43.2002)"
       class="st5 st6 st7"
       id="text369">p</text>
<text
       transform="matrix(1 0 0 1 29.334 43.2002)"
       class="st5 st6 st7"
       id="text371">l</text>
<text
       transform="matrix(1 0 0 1 32.166 43.2002)"
       class="st5 st6 st7"
       id="text373">e</text>
<text
       transform="matrix(1 0 0 1 38.5137 43.2002)"
       class="st5 st6 st7"
       id="text375">-</text>
<text
       transform="matrix(1 0 0 1 42.1973 43.2002)"
       class="st5 st6 st7"
       id="text377">I</text>
<text
       transform="matrix(1 0 0 1 45.0654 43.2002)"
       class="st5 st6 st7"
       id="text379">c</text>
<text
       transform="matrix(1 0 0 1 50.3701 43.2002)"
       class="st5 st6 st7"
       id="text381">o</text>
<text
       transform="matrix(1 0 0 1 56.958 43.2002)"
       class="st5 st6 st7"
       id="text383">n</text>
<text
       transform="matrix(1 0 0 1 63.6182 43.2002)"
       class="st5 st6 st7"
       id="text385">s</text>
<text
       transform="matrix(1 0 0 1 68.3701 43.2002)"
       class="st5 st6 st7"
       id="text387">%</text>
<text
       transform="matrix(1 0 0 1 77.874 43.2002)"
       class="st5 st6 st7"
       id="text389">2</text>
<text
       transform="matrix(1 0 0 1 84.0303 43.2002)"
       class="st5 st6 st7"
       id="text391">0</text>
<text
       transform="matrix(1 0 0 1 90.1865 43.2002)"
       class="st5 st6 st7"
       id="text393">2</text>
<text
       transform="matrix(1 0 0 1 96.3428 43.2002)"
       class="st5 st6 st7"
       id="text395">/</text>
<text
       transform="matrix(1 0 0 1 100.459 43.2002)"
       class="st5 st6 st7"
       id="text397">D</text>
<text
       transform="matrix(1 0 0 1 108.499 43.2002)"
       class="st5 st6 st7"
       id="text399">e</text>
<text
       transform="matrix(1 0 0 1 114.5107 43.2002)"
       class="st5 st6 st7"
       id="text401">p</text>
<text
       transform="matrix(1 0 0 1 121.3389 43.2002)"
       class="st5 st6 st7"
       id="text403">l</text>
<text
       transform="matrix(1 0 0 1 124.1709 43.2002)"
       class="st5 st6 st7"
       id="text405">o</text>
<text
       transform="matrix(1 0 0 1 130.6748 43.2002)"
       class="st5 st6 st7"
       id="text407">y</text>
<text
       transform="matrix(1 0 0 1 136.3271 43.2002)"
       class="st5 st6 st7"
       id="text409">m</text>
<text
       transform="matrix(1 0 0 1 146.335 43.2002)"
       class="st5 st6 st7"
       id="text411">e</text>
<text
       transform="matrix(1 0 0 1 152.3467 43.2002)"
       class="st5 st6 st7"
       id="text413">n</text>
<text
       transform="matrix(1 0 0 1 158.959 43.2002)"
       class="st5 st6 st7"
       id="text415">t</text>
<text
       transform="matrix(1 0 0 1 162.9307 43.2002)"
       class="st5 st6 st7"
       id="text417">%</text>
<text
       transform="matrix(1 0 0 1 172.4346 43.2002)"
       class="st5 st6 st7"
       id="text419">2</text>
<text
       transform="matrix(1 0 0 1 178.5908 43.2002)"
       class="st5 st6 st7"
       id="text421">0</text>
<text
       transform="matrix(1 0 0 1 184.7471 43.2002)"
       class="st5 st6 st7"
       id="text423">&amp;</text>
<text
       transform="matrix(1 0 0 1 192.0068 43.2002)"
       class="st5 st6 st7"
       id="text425">a</text>
<text
       transform="matrix(1 0 0 1 197.791 43.2002)"
       class="st5 st6 st7"
       id="text427">m</text>
<text
       transform="matrix(1 0 0 1 207.7988 43.2002)"
       class="st5 st6 st7"
       id="text429">p</text>
<text
       transform="matrix(1 0 0 1 214.627 43.2002)"
       class="st5 st6 st7"
       id="text431">;</text>
<text
       transform="matrix(1 0 0 1 217.1104 43.2002)"
       class="st5 st6 st7"
       id="text433">%</text>
<text
       transform="matrix(1 0 0 1 226.6143 43.2002)"
       class="st5 st6 st7"
       id="text435">2</text>
<text
       transform="matrix(1 0 0 1 232.7705 43.2002)"
       class="st5 st6 st7"
       id="text437">0</text>
<text
       transform="matrix(1 0 0 1 238.9268 43.2002)"
       class="st5 st6 st7"
       id="text439">M</text>
<text
       transform="matrix(1 0 0 1 248.6465 43.2002)"
       class="st5 st6 st7"
       id="text441">a</text>
<text
       transform="matrix(1 0 0 1 254.4297 43.2002)"
       class="st5 st6 st7"
       id="text443">n</text>
<text
       transform="matrix(1 0 0 1 261.0898 43.2002)"
       class="st5 st6 st7"
       id="text445">a</text>
<text
       transform="matrix(1 0 0 1 266.875 43.2002)"
       class="st5 st6 st7"
       id="text447">g</text>
<text
       transform="matrix(1 0 0 1 273.582 43.2002)"
       class="st5 st6 st7"
       id="text449">e</text>
<text
       transform="matrix(1 0 0 1 279.5938 43.2002)"
       class="st5 st6 st7"
       id="text451">m</text>
<text
       transform="matrix(1 0 0 1 289.6016 43.2002)"
       class="st5 st6 st7"
       id="text453">e</text>
<text
       transform="matrix(1 0 0 1 295.6133 43.2002)"
       class="st5 st6 st7"
       id="text455">n</text>
<text
       transform="matrix(1 0 0 1 302.2256 43.2002)"
       class="st5 st6 st7"
       id="text457">t</text>
<text
       transform="matrix(1 0 0 1 306.1973 43.2002)"
       class="st5 st6 st7"
       id="text459">/</text>
<text
       transform="matrix(1 0 0 1 310.3135 43.2002)"
       class="st5 st6 st7"
       id="text461">E</text>
<text
       transform="matrix(1 0 0 1 316.2178 43.2002)"
       class="st5 st6 st7"
       id="text463">P</text>
<text
       transform="matrix(1 0 0 1 322.6016 43.2002)"
       class="st5 st6 st7"
       id="text465">S</text>
<text
       transform="matrix(1 0 0 1 328.5176 43.2002)"
       class="st5 st6 st7"
       id="text467">&lt;</text>
<text
       transform="matrix(1 0 0 1 335.6699 43.2002)"
       class="st5 st6 st7"
       id="text469">/</text>
<text
       transform="matrix(1 0 0 1 339.7861 43.2002)"
       class="st5 st6 st7"
       id="text471">n</text>
<text
       transform="matrix(1 0 0 1 346.291 43.2002)"
       class="st5 st6 st7"
       id="text473">y</text>
<text
       transform="matrix(1 0 0 1 351.9434 43.2002)"
       class="st5 st6 st7"
       id="text475">t</text>
<text
       transform="matrix(1 0 0 1 355.915 43.2002)"
       class="st5 st6 st7"
       id="text477">_</text>
<text
       transform="matrix(1 0 0 1 361.915 43.2002)"
       class="st5 st6 st7"
       id="text479">b</text>
<text
       transform="matrix(1 0 0 1 368.7432 43.2002)"
       class="st5 st6 st7"
       id="text481">a</text>
<text
       transform="matrix(1 0 0 1 374.5273 43.2002)"
       class="st5 st6 st7"
       id="text483">s</text>
<text
       transform="matrix(1 0 0 1 379.2793 43.2002)"
       class="st5 st6 st7"
       id="text485">e</text>
<text
       transform="matrix(1 0 0 1 385.291 43.2002)"
       class="st5 st6 st7"
       id="text487">_</text>
<text
       transform="matrix(1 0 0 1 391.291 43.2002)"
       class="st5 st6 st7"
       id="text489">p</text>
<text
       transform="matrix(1 0 0 1 398.1191 43.2002)"
       class="st5 st6 st7"
       id="text491">a</text>
<text
       transform="matrix(1 0 0 1 403.8555 43.2002)"
       class="st5 st6 st7"
       id="text493">t</text>
<text
       transform="matrix(1 0 0 1 407.8271 43.2002)"
       class="st5 st6 st7"
       id="text495">h</text>
<text
       transform="matrix(1 0 0 1 414.4873 43.2002)"
       class="st5 st6 st7"
       id="text497">&gt;</text>
<text
       transform="matrix(1 0 0 1 -595 57.5996)"
       class="st5 st6 st7"
       id="text499" />
<text
       transform="matrix(1 0 0 1 -592.4561 57.5996)"
       class="st5 st6 st7"
       id="text501" />
<text
       transform="matrix(1 0 0 1 -589.9121 57.5996)"
       class="st5 st6 st7"
       id="text503">&lt;</text>
<text
       transform="matrix(1 0 0 1 -582.7603 57.5996)"
       class="st5 st6 st7"
       id="text505">n</text>
<text
       transform="matrix(1 0 0 1 -576.2563 57.5996)"
       class="st5 st6 st7"
       id="text507">y</text>
<text
       transform="matrix(1 0 0 1 -570.6045 57.5996)"
       class="st5 st6 st7"
       id="text509">t</text>
<text
       transform="matrix(1 0 0 1 -566.6323 57.5996)"
       class="st5 st6 st7"
       id="text511">_</text>
<text
       transform="matrix(1 0 0 1 -560.6323 57.5996)"
       class="st5 st6 st7"
       id="text513">s</text>
<text
       transform="matrix(1 0 0 1 -555.8804 57.5996)"
       class="st5 st6 st7"
       id="text515">c</text>
<text
       transform="matrix(1 0 0 1 -550.5044 57.5996)"
       class="st5 st6 st7"
       id="text517">a</text>
<text
       transform="matrix(1 0 0 1 -544.7202 57.5996)"
       class="st5 st6 st7"
       id="text519">l</text>
<text
       transform="matrix(1 0 0 1 -541.8887 57.5996)"
       class="st5 st6 st7"
       id="text521">i</text>
<text
       transform="matrix(1 0 0 1 -539.0811 57.5996)"
       class="st5 st6 st7"
       id="text523">n</text>
<text
       transform="matrix(1 0 0 1 -532.4209 57.5996)"
       class="st5 st6 st7"
       id="text525">g</text>
<text
       transform="matrix(1 0 0 1 -525.7129 57.5996)"
       class="st5 st6 st7"
       id="text527">&gt;</text>
<text
       transform="matrix(1 0 0 1 -518.5605 57.5996)"
       class="st5 st6 st7"
       id="text529">1</text>
<text
       transform="matrix(1 0 0 1 -512.4043 57.5996)"
       class="st5 st6 st7"
       id="text531">0</text>
<text
       transform="matrix(1 0 0 1 -506.248 57.5996)"
       class="st5 st6 st7"
       id="text533">0</text>
<text
       transform="matrix(1 0 0 1 -500.0918 57.5996)"
       class="st5 st6 st7"
       id="text535">&lt;</text>
<text
       transform="matrix(1 0 0 1 -492.9395 57.5996)"
       class="st5 st6 st7"
       id="text537">/</text>
<text
       transform="matrix(1 0 0 1 -488.8232 57.5996)"
       class="st5 st6 st7"
       id="text539">n</text>
<text
       transform="matrix(1 0 0 1 -482.3184 57.5996)"
       class="st5 st6 st7"
       id="text541">y</text>
<text
       transform="matrix(1 0 0 1 -476.666 57.5996)"
       class="st5 st6 st7"
       id="text543">t</text>
<text
       transform="matrix(1 0 0 1 -472.6943 57.5996)"
       class="st5 st6 st7"
       id="text545">_</text>
<text
       transform="matrix(1 0 0 1 -466.6943 57.5996)"
       class="st5 st6 st7"
       id="text547">s</text>
<text
       transform="matrix(1 0 0 1 -461.9424 57.5996)"
       class="st5 st6 st7"
       id="text549">c</text>
<text
       transform="matrix(1 0 0 1 -456.5664 57.5996)"
       class="st5 st6 st7"
       id="text551">a</text>
<text
       transform="matrix(1 0 0 1 -450.7822 57.5996)"
       class="st5 st6 st7"
       id="text553">l</text>
<text
       transform="matrix(1 0 0 1 -447.9502 57.5996)"
       class="st5 st6 st7"
       id="text555">i</text>
<text
       transform="matrix(1 0 0 1 -445.1426 57.5996)"
       class="st5 st6 st7"
       id="text557">n</text>
<text
       transform="matrix(1 0 0 1 -438.4824 57.5996)"
       class="st5 st6 st7"
       id="text559">g</text>
<text
       transform="matrix(1 0 0 1 -431.7744 57.5996)"
       class="st5 st6 st7"
       id="text561">&gt;</text>
<text
       transform="matrix(1 0 0 1 -595 72)"
       class="st5 st6 st7"
       id="text563" />
<text
       transform="matrix(1 0 0 1 -592.4561 72)"
       class="st5 st6 st7"
       id="text565" />
<text
       transform="matrix(1 0 0 1 -589.9121 72)"
       class="st5 st6 st7"
       id="text567">&lt;</text>
<text
       transform="matrix(1 0 0 1 -582.7603 72)"
       class="st5 st6 st7"
       id="text569">n</text>
<text
       transform="matrix(1 0 0 1 -576.2563 72)"
       class="st5 st6 st7"
       id="text571">y</text>
<text
       transform="matrix(1 0 0 1 -570.6045 72)"
       class="st5 st6 st7"
       id="text573">t</text>
<text
       transform="matrix(1 0 0 1 -566.6323 72)"
       class="st5 st6 st7"
       id="text575">_</text>
<text
       transform="matrix(1 0 0 1 -560.6323 72)"
       class="st5 st6 st7"
       id="text577">t</text>
<text
       transform="matrix(1 0 0 1 -556.6606 72)"
       class="st5 st6 st7"
       id="text579">r</text>
<text
       transform="matrix(1 0 0 1 -552.7969 72)"
       class="st5 st6 st7"
       id="text581">a</text>
<text
       transform="matrix(1 0 0 1 -547.0127 72)"
       class="st5 st6 st7"
       id="text583">n</text>
<text
       transform="matrix(1 0 0 1 -540.3525 72)"
       class="st5 st6 st7"
       id="text585">s</text>
<text
       transform="matrix(1 0 0 1 -535.6006 72)"
       class="st5 st6 st7"
       id="text587">p</text>
<text
       transform="matrix(1 0 0 1 -528.7725 72)"
       class="st5 st6 st7"
       id="text589">a</text>
<text
       transform="matrix(1 0 0 1 -522.9883 72)"
       class="st5 st6 st7"
       id="text591">r</text>
<text
       transform="matrix(1 0 0 1 -519.1846 72)"
       class="st5 st6 st7"
       id="text593">e</text>
<text
       transform="matrix(1 0 0 1 -513.1729 72)"
       class="st5 st6 st7"
       id="text595">n</text>
<text
       transform="matrix(1 0 0 1 -506.5127 72)"
       class="st5 st6 st7"
       id="text597">c</text>
<text
       transform="matrix(1 0 0 1 -500.9209 72)"
       class="st5 st6 st7"
       id="text599">y</text>
<text
       transform="matrix(1 0 0 1 -495.2686 72)"
       class="st5 st6 st7"
       id="text601">&gt;</text>
<text
       transform="matrix(1 0 0 1 -488.1162 72)"
       class="st5 st6 st7"
       id="text603">t</text>
<text
       transform="matrix(1 0 0 1 -484.1445 72)"
       class="st5 st6 st7"
       id="text605">r</text>
<text
       transform="matrix(1 0 0 1 -480.2207 72)"
       class="st5 st6 st7"
       id="text607">u</text>
<text
       transform="matrix(1 0 0 1 -473.6084 72)"
       class="st5 st6 st7"
       id="text609">e</text>
<text
       transform="matrix(1 0 0 1 -467.5967 72)"
       class="st5 st6 st7"
       id="text611">&lt;</text>
<text
       transform="matrix(1 0 0 1 -460.4443 72)"
       class="st5 st6 st7"
       id="text613">/</text>
<text
       transform="matrix(1 0 0 1 -456.3281 72)"
       class="st5 st6 st7"
       id="text615">n</text>
<text
       transform="matrix(1 0 0 1 -449.8232 72)"
       class="st5 st6 st7"
       id="text617">y</text>
<text
       transform="matrix(1 0 0 1 -444.1709 72)"
       class="st5 st6 st7"
       id="text619">t</text>
<text
       transform="matrix(1 0 0 1 -440.1992 72)"
       class="st5 st6 st7"
       id="text621">_</text>
<text
       transform="matrix(1 0 0 1 -434.1992 72)"
       class="st5 st6 st7"
       id="text623">t</text>
<text
       transform="matrix(1 0 0 1 -430.2275 72)"
       class="st5 st6 st7"
       id="text625">r</text>
<text
       transform="matrix(1 0 0 1 -426.3633 72)"
       class="st5 st6 st7"
       id="text627">a</text>
<text
       transform="matrix(1 0 0 1 -420.5801 72)"
       class="st5 st6 st7"
       id="text629">n</text>
<text
       transform="matrix(1 0 0 1 -413.9199 72)"
       class="st5 st6 st7"
       id="text631">s</text>
<text
       transform="matrix(1 0 0 1 -409.168 72)"
       class="st5 st6 st7"
       id="text633">p</text>
<text
       transform="matrix(1 0 0 1 -402.3398 72)"
       class="st5 st6 st7"
       id="text635">a</text>
<text
       transform="matrix(1 0 0 1 -396.5547 72)"
       class="st5 st6 st7"
       id="text637">r</text>
<text
       transform="matrix(1 0 0 1 -392.751 72)"
       class="st5 st6 st7"
       id="text639">e</text>
<text
       transform="matrix(1 0 0 1 -386.7393 72)"
       class="st5 st6 st7"
       id="text641">n</text>
<text
       transform="matrix(1 0 0 1 -380.0791 72)"
       class="st5 st6 st7"
       id="text643">c</text>
<text
       transform="matrix(1 0 0 1 -374.4873 72)"
       class="st5 st6 st7"
       id="text645">y</text>
<text
       transform="matrix(1 0 0 1 -368.835 72)"
       class="st5 st6 st7"
       id="text647">&gt;</text>
<text
       transform="matrix(1 0 0 1 -595 86.4004)"
       class="st5 st6 st7"
       id="text649" />
<text
       transform="matrix(1 0 0 1 -592.4561 86.4004)"
       class="st5 st6 st7"
       id="text651" />
<text
       transform="matrix(1 0 0 1 -589.9121 86.4004)"
       class="st5 st6 st7"
       id="text653">&lt;</text>
<text
       transform="matrix(1 0 0 1 -582.7603 86.4004)"
       class="st5 st6 st7"
       id="text655">n</text>
<text
       transform="matrix(1 0 0 1 -576.2563 86.4004)"
       class="st5 st6 st7"
       id="text657">y</text>
<text
       transform="matrix(1 0 0 1 -570.6045 86.4004)"
       class="st5 st6 st7"
       id="text659">t</text>
<text
       transform="matrix(1 0 0 1 -566.6323 86.4004)"
       class="st5 st6 st7"
       id="text661">_</text>
<text
       transform="matrix(1 0 0 1 -560.6323 86.4004)"
       class="st5 st6 st7"
       id="text663">f</text>
<text
       transform="matrix(1 0 0 1 -557.2842 86.4004)"
       class="st5 st6 st7"
       id="text665">o</text>
<text
       transform="matrix(1 0 0 1 -550.6963 86.4004)"
       class="st5 st6 st7"
       id="text667">r</text>
<text
       transform="matrix(1 0 0 1 -546.7246 86.4004)"
       class="st5 st6 st7"
       id="text669">m</text>
<text
       transform="matrix(1 0 0 1 -536.7168 86.4004)"
       class="st5 st6 st7"
       id="text671">a</text>
<text
       transform="matrix(1 0 0 1 -530.9805 86.4004)"
       class="st5 st6 st7"
       id="text673">t</text>
<text
       transform="matrix(1 0 0 1 -527.0088 86.4004)"
       class="st5 st6 st7"
       id="text675">&gt;</text>
<text
       transform="matrix(1 0 0 1 -519.8564 86.4004)"
       class="st5 st6 st7"
       id="text677">E</text>
<text
       transform="matrix(1 0 0 1 -513.9521 86.4004)"
       class="st5 st6 st7"
       id="text679">P</text>
<text
       transform="matrix(1 0 0 1 -507.5684 86.4004)"
       class="st5 st6 st7"
       id="text681">S</text>
<text
       transform="matrix(1 0 0 1 -501.6523 86.4004)"
       class="st5 st6 st7"
       id="text683">&lt;</text>
<text
       transform="matrix(1 0 0 1 -494.5 86.4004)"
       class="st5 st6 st7"
       id="text685">/</text>
<text
       transform="matrix(1 0 0 1 -490.3838 86.4004)"
       class="st5 st6 st7"
       id="text687">n</text>
<text
       transform="matrix(1 0 0 1 -483.8799 86.4004)"
       class="st5 st6 st7"
       id="text689">y</text>
<text
       transform="matrix(1 0 0 1 -478.2275 86.4004)"
       class="st5 st6 st7"
       id="text691">t</text>
<text
       transform="matrix(1 0 0 1 -474.2559 86.4004)"
       class="st5 st6 st7"
       id="text693">_</text>
<text
       transform="matrix(1 0 0 1 -468.2559 86.4004)"
       class="st5 st6 st7"
       id="text695">f</text>
<text
       transform="matrix(1 0 0 1 -464.9072 86.4004)"
       class="st5 st6 st7"
       id="text697">o</text>
<text
       transform="matrix(1 0 0 1 -458.3193 86.4004)"
       class="st5 st6 st7"
       id="text699">r</text>
<text
       transform="matrix(1 0 0 1 -454.3477 86.4004)"
       class="st5 st6 st7"
       id="text701">m</text>
<text
       transform="matrix(1 0 0 1 -444.3398 86.4004)"
       class="st5 st6 st7"
       id="text703">a</text>
<text
       transform="matrix(1 0 0 1 -438.6035 86.4004)"
       class="st5 st6 st7"
       id="text705">t</text>
<text
       transform="matrix(1 0 0 1 -434.6318 86.4004)"
       class="st5 st6 st7"
       id="text707">&gt;</text>
<text
       transform="matrix(1 0 0 1 -595 100.7998)"
       class="st5 st6 st7"
       id="text709" />
<text
       transform="matrix(1 0 0 1 -592.4561 100.7998)"
       class="st5 st6 st7"
       id="text711" />
<text
       transform="matrix(1 0 0 1 -589.9121 100.7998)"
       class="st5 st6 st7"
       id="text713">&lt;</text>
<text
       transform="matrix(1 0 0 1 -582.7603 100.7998)"
       class="st5 st6 st7"
       id="text715">n</text>
<text
       transform="matrix(1 0 0 1 -576.2563 100.7998)"
       class="st5 st6 st7"
       id="text717">y</text>
<text
       transform="matrix(1 0 0 1 -570.6045 100.7998)"
       class="st5 st6 st7"
       id="text719">t</text>
<text
       transform="matrix(1 0 0 1 -566.6323 100.7998)"
       class="st5 st6 st7"
       id="text721">_</text>
<text
       transform="matrix(1 0 0 1 -560.6323 100.7998)"
       class="st5 st6 st7"
       id="text723">e</text>
<text
       transform="matrix(1 0 0 1 -554.6567 100.7998)"
       class="st5 st6 st7"
       id="text725">x</text>
<text
       transform="matrix(1 0 0 1 -549.1006 100.7998)"
       class="st5 st6 st7"
       id="text727">p</text>
<text
       transform="matrix(1 0 0 1 -542.2725 100.7998)"
       class="st5 st6 st7"
       id="text729">o</text>
<text
       transform="matrix(1 0 0 1 -535.6846 100.7998)"
       class="st5 st6 st7"
       id="text731">r</text>
<text
       transform="matrix(1 0 0 1 -531.4736 100.7998)"
       class="st5 st6 st7"
       id="text733">t</text>
<text
       transform="matrix(1 0 0 1 -527.502 100.7998)"
       class="st5 st6 st7"
       id="text735">_</text>
<text
       transform="matrix(1 0 0 1 -521.502 100.7998)"
       class="st5 st6 st7"
       id="text737">c</text>
<text
       transform="matrix(1 0 0 1 -516.1973 100.7998)"
       class="st5 st6 st7"
       id="text739">o</text>
<text
       transform="matrix(1 0 0 1 -509.6094 100.7998)"
       class="st5 st6 st7"
       id="text741">d</text>
<text
       transform="matrix(1 0 0 1 -502.8418 100.7998)"
       class="st5 st6 st7"
       id="text743">e</text>
<text
       transform="matrix(1 0 0 1 -496.8301 100.7998)"
       class="st5 st6 st7"
       id="text745">&gt;</text>
<text
       transform="matrix(1 0 0 1 -489.6777 100.7998)"
       class="st5 st6 st7"
       id="text747">a</text>
<text
       transform="matrix(1 0 0 1 -483.8936 100.7998)"
       class="st5 st6 st7"
       id="text749">r</text>
<text
       transform="matrix(1 0 0 1 -479.6816 100.7998)"
       class="st5 st6 st7"
       id="text751">t</text>
<text
       transform="matrix(1 0 0 1 -475.7109 100.7998)"
       class="st5 st6 st7"
       id="text753">b</text>
<text
       transform="matrix(1 0 0 1 -468.8828 100.7998)"
       class="st5 st6 st7"
       id="text755">o</text>
<text
       transform="matrix(1 0 0 1 -462.2949 100.7998)"
       class="st5 st6 st7"
       id="text757">a</text>
<text
       transform="matrix(1 0 0 1 -456.5098 100.7998)"
       class="st5 st6 st7"
       id="text759">r</text>
<text
       transform="matrix(1 0 0 1 -452.7061 100.7998)"
       class="st5 st6 st7"
       id="text761">d</text>
<text
       transform="matrix(1 0 0 1 -445.9385 100.7998)"
       class="st5 st6 st7"
       id="text763">s</text>
<text
       transform="matrix(1 0 0 1 -441.1865 100.7998)"
       class="st5 st6 st7"
       id="text765">&lt;</text>
<text
       transform="matrix(1 0 0 1 -434.0342 100.7998)"
       class="st5 st6 st7"
       id="text767">/</text>
<text
       transform="matrix(1 0 0 1 -429.918 100.7998)"
       class="st5 st6 st7"
       id="text769">n</text>
<text
       transform="matrix(1 0 0 1 -423.4141 100.7998)"
       class="st5 st6 st7"
       id="text771">y</text>
<text
       transform="matrix(1 0 0 1 -417.7617 100.7998)"
       class="st5 st6 st7"
       id="text773">t</text>
<text
       transform="matrix(1 0 0 1 -413.79 100.7998)"
       class="st5 st6 st7"
       id="text775">_</text>
<text
       transform="matrix(1 0 0 1 -407.79 100.7998)"
       class="st5 st6 st7"
       id="text777">e</text>
<text
       transform="matrix(1 0 0 1 -401.8145 100.7998)"
       class="st5 st6 st7"
       id="text779">x</text>
<text
       transform="matrix(1 0 0 1 -396.2588 100.7998)"
       class="st5 st6 st7"
       id="text781">p</text>
<text
       transform="matrix(1 0 0 1 -389.4307 100.7998)"
       class="st5 st6 st7"
       id="text783">o</text>
<text
       transform="matrix(1 0 0 1 -382.8428 100.7998)"
       class="st5 st6 st7"
       id="text785">r</text>
<text
       transform="matrix(1 0 0 1 -378.6309 100.7998)"
       class="st5 st6 st7"
       id="text787">t</text>
<text
       transform="matrix(1 0 0 1 -374.6592 100.7998)"
       class="st5 st6 st7"
       id="text789">_</text>
<text
       transform="matrix(1 0 0 1 -368.6592 100.7998)"
       class="st5 st6 st7"
       id="text791">c</text>
<text
       transform="matrix(1 0 0 1 -363.3555 100.7998)"
       class="st5 st6 st7"
       id="text793">o</text>
<text
       transform="matrix(1 0 0 1 -356.7676 100.7998)"
       class="st5 st6 st7"
       id="text795">d</text>
<text
       transform="matrix(1 0 0 1 -350 100.7998)"
       class="st5 st6 st7"
       id="text797">e</text>
<text
       transform="matrix(1 0 0 1 -343.9883 100.7998)"
       class="st5 st6 st7"
       id="text799">&gt;</text>
<text
       transform="matrix(1 0 0 1 -595 115.2002)"
       class="st5 st6 st7"
       id="text801">&lt;</text>
<text
       transform="matrix(1 0 0 1 -587.8481 115.2002)"
       class="st5 st6 st7"
       id="text803">/</text>
<text
       transform="matrix(1 0 0 1 -583.7324 115.2002)"
       class="st5 st6 st7"
       id="text805">n</text>
<text
       transform="matrix(1 0 0 1 -577.228 115.2002)"
       class="st5 st6 st7"
       id="text807">y</text>
<text
       transform="matrix(1 0 0 1 -571.5762 115.2002)"
       class="st5 st6 st7"
       id="text809">t</text>
<text
       transform="matrix(1 0 0 1 -567.604 115.2002)"
       class="st5 st6 st7"
       id="text811">_</text>
<text
       transform="matrix(1 0 0 1 -561.604 115.2002)"
       class="st5 st6 st7"
       id="text813">p</text>
<text
       transform="matrix(1 0 0 1 -554.7764 115.2002)"
       class="st5 st6 st7"
       id="text815">r</text>
<text
       transform="matrix(1 0 0 1 -550.9727 115.2002)"
       class="st5 st6 st7"
       id="text817">e</text>
<text
       transform="matrix(1 0 0 1 -544.9609 115.2002)"
       class="st5 st6 st7"
       id="text819">f</text>
<text
       transform="matrix(1 0 0 1 -541.5654 115.2002)"
       class="st5 st6 st7"
       id="text821">s</text>
<text
       transform="matrix(1 0 0 1 -536.8135 115.2002)"
       class="st5 st6 st7"
       id="text823">&gt;</text>
</g><g
     id="CloudTrail" /></svg>